<svg id="Capa_1" data-name="Capa 1" xmlns="http://www.w3.org/2000/svg" viewBox="0 0 870.93 979.94"><title>bolsa</title><path d="M870.87,898.4c-.7-16.6-3.1-33.1-4.7-49.6q-4.8-47.85-9.6-95.6-4.35-42.9-8.5-85.7c-3.2-31.7-6.4-63.5-9.6-95.2s-6.3-63.5-9.5-95.2c-3.2-32.2-6.5-64.4-9.7-96.5-1.4-13.7-1.7-27.5-4.1-41-7-39.6-40.4-67.2-80.6-67.4-25.4-.1-50.8,0-76.2,0h-5.2c0-17.3.5-34.1-.1-50.8-.5-14.2-1.3-28.4-3.6-42.4-14-85.7-84.1-157.6-169.6-174.4-10.2-2-20.6-3.1-30.9-4.6h-27.2c-1.2.2-2.3.6-3.5.7-49.1,4-92.3,22.4-128.7,55.5-42.6,38.7-66.7,86.9-71,144.4-1.6,22.1-.7,44.4-1,66.6v5H212c-26.2,0-52.3-.2-78.5.1-37.2.5-71,28.4-77.3,65.1-3.5,20.4-4.4,41.1-6.5,61.7-2.9,28.6-5.7,57.1-8.5,85.7-3.2,32-6.4,64.1-9.6,96.1-3.1,31.4-6.3,62.9-9.4,94.3-3.5,34.7-7,69.5-10.5,104.2-3.2,32.3-6.5,64.7-9.7,97-.9,9.3-2.5,18.8-1.8,28,3.1,43,38.3,75.5,81.5,75.5q353.7.15,707.3,0a82.74,82.74,0,0,0,31.8-6.3C851,961.1,872.17,930,870.87,898.4ZM272.27,214c.9-76.6,58.7-144.2,134.3-157.1,88.8-15.1,171.1,40.9,189.2,129a126.82,126.82,0,0,1,2.8,22.9c.4,20.8.1,41.7.1,63.1H272.47c-.1-1.2-.3-2.3-.3-3.5C272.17,250.2,272.07,232.1,272.27,214Zm499.9,710.4a76.84,76.84,0,0,1-11.7.9H110.77c-29.4,0-51.9-18.8-55.6-47.8-1.1-8.7.6-17.7,1.6-26.6,3.7-34.3,7.6-68.5,11.4-102.7l12.3-110.4c3.5-31.2,6.9-62.5,10.4-93.7s7-62.5,10.4-93.7c2.7-24.5,5.6-48.9,7.7-73.5,2.4-27.7,25.4-50,53.1-50.4,17.5-.2,35.1-.1,52.6-.1.9,0,1.8.1,3.1.2,0,20,.1,39.6-.1,59,0,1.6-1.8,3.6-3.3,4.6-33.7,23.4-30.9,74.1,5.2,93.2A54.34,54.34,0,0,0,276,390.7a7.71,7.71,0,0,1-3.8-7.3c.2-18.7.1-37.5.1-56.6h326.4c.1,1.3.2,2.6.2,3.9,0,17.8-.1,35.7.1,53.5,0,2.9-1,4.5-3.4,6.2a54.37,54.37,0,1,0,61.5.3c-2.8-1.9-3.9-3.8-3.9-7.3.2-17.4.1-34.8.1-52.2v-4.8c8.3,0,16.1-.1,23.9,0,13.1.2,26.4-.6,39.4,1,24.6,3,43.5,24.6,45.6,49.3,1.6,19,3.8,37.9,5.9,56.8,3.1,28.7,6.4,57.4,9.6,86.1l10.5,94.2c3.2,28.5,6.3,57.1,9.5,85.6l10.5,94.2c2.8,25.2,5.9,50.4,8.4,75.7C818.87,894.4,798,920.1,772.17,924.4Z" style="fill:#c2ab76"/></svg>