<svg id="Capa_1" data-name="Capa 1" xmlns="http://www.w3.org/2000/svg" viewBox="0 0 30.03 30.01"><title>facebook</title><path d="M29.68,14.39v1.24l0,.09V16a14.72,14.72,0,0,1-6.84,11.39,14.45,14.45,0,0,1-7.15,2.23l-.08,0H14.45l-.1,0c-.29,0-.58,0-.86-.06a14.5,14.5,0,0,1-4.86-1.39A14.66,14.66,0,0,1,.36,15.65l0-.22v-.91l0-.43a13.66,13.66,0,0,1,.69-3.61,14.55,14.55,0,0,1,5.72-7.6A14.38,14.38,0,0,1,13.42.43c.36,0,.72-.06,1.08-.08h1l.89.07a14.64,14.64,0,0,1,13.27,14Z" style="fill:none;stroke:#c2ab76;stroke-width:0.6700000166893005px"/><path d="M16.13,12.53V10a1.56,1.56,0,0,1,.09-.46A.8.8,0,0,1,16.7,9l.14,0a2.29,2.29,0,0,1,.58-.06h2L19.51,6h-.07l-.63-.06-1-.05a7.74,7.74,0,0,0-1.55.08,4.74,4.74,0,0,0-1.17.33,3.62,3.62,0,0,0-2,2.11,4.19,4.19,0,0,0-.27,1.57v2.6h-2.3V15.7h2.3v8.67c.13,0,3.3,0,3.35,0V15.7h3.24c0-.08.16-3.12.14-3.17Z" style="fill:none;stroke:#231f20;stroke-width:0.009999999776482582px"/><path d="M16.13,12.53h3.38c0,.05-.12,3.1-.14,3.17H16.13v8.66s-3.22,0-3.35,0V15.7h-2.3V12.53h2.3V9.93A4.42,4.42,0,0,1,13,8.36a3.62,3.62,0,0,1,2-2.1,4.47,4.47,0,0,1,1.17-.34,7.33,7.33,0,0,1,1.55-.08l1,.05.63.06h.07l-.08,3h-2a2.11,2.11,0,0,0-.73.1.8.8,0,0,0-.47.5,1.45,1.45,0,0,0-.09.46v2.56Z" style="fill:#c2ab76"/></svg>