<svg id="Capa_1" data-name="Capa 1" xmlns="http://www.w3.org/2000/svg" viewBox="0 0 29.83 29.81"><title>instagram</title><path d="M14.92,22.47H11.6a4.34,4.34,0,0,1-4.24-4.38V11.94A4.27,4.27,0,0,1,8.1,9.5a4.33,4.33,0,0,1,3.63-1.93H18.1a4.36,4.36,0,0,1,4.36,4.38v6.16a4.37,4.37,0,0,1-4.3,4.37H14.92Zm0-13.33H11.74a1.84,1.84,0,0,0-.4,0,2.6,2.6,0,0,0-1.5.71,2.71,2.71,0,0,0-.9,2.06v6.12a1.23,1.23,0,0,0,0,.27,2.61,2.61,0,0,0,.45,1.32,2.68,2.68,0,0,0,2.3,1.23c2.14,0,4.28,0,6.42,0a2.79,2.79,0,0,0,2.76-2.79V11.93a2.78,2.78,0,0,0-2.78-2.78H14.92Z" style="fill:#c2ab76"/><path d="M18.89,15A3.9,3.9,0,0,1,15,18.93l-.46,0a3.88,3.88,0,0,1-3.39-3,5.87,5.87,0,0,1-.13-.84,1.84,1.84,0,0,1,0-.41c0-.22.07-.45.13-.67a4.22,4.22,0,0,1,1-1.74,3.88,3.88,0,0,1,3.06-1.12,3.87,3.87,0,0,1,3.62,3.45l0,.42Zm-1.41,0,0-.36a2.3,2.3,0,0,0-.51-1.13,2.38,2.38,0,0,0-2.13-.94,2.7,2.7,0,0,0-.67.14,2.43,2.43,0,0,0-1.64,2.64A2.61,2.61,0,0,0,13,16.6a2.36,2.36,0,0,0,2.3.9,2.45,2.45,0,0,0,1.65-1A2.67,2.67,0,0,0,17.48,15Zm.6-4a.83.83,0,0,1,.86-.88,1,1,0,0,1,.66.19.9.9,0,0,1,.35.8.87.87,0,0,1-.77.84,1,1,0,0,1-.65-.11.86.86,0,0,1-.44-.65l0-.19Z" style="fill:#c2ab76"/><path d="M29.5,14.29v1.32a1.77,1.77,0,0,1,0,.32,14.29,14.29,0,0,1-1.25,5,14.58,14.58,0,0,1-12.65,8.58H14.26l-.86-.07a14.57,14.57,0,0,1-13-13.86,1.46,1.46,0,0,1,0-.22v-.9l0-.43a13.7,13.7,0,0,1,.68-3.6A14.47,14.47,0,0,1,11.8.67,13.18,13.18,0,0,1,13.33.42c.36,0,.71-.05,1.07-.08h1c.3,0,.6,0,.89.06A14.57,14.57,0,0,1,29.48,14.23l0,.07Z" style="fill:none;stroke:#c2ab76;stroke-width:0.6600000262260437px"/></svg>